<svg width="57" height="52" viewBox="0 0 57 52" fill="none" xmlns="http://www.w3.org/2000/svg">
<path d="M9.5688 18.9392C12.0853 18.9392 14.1254 16.8849 14.1254 14.3509C14.1254 11.8169 12.0853 9.7627 9.5688 9.7627C7.05226 9.7627 5.01221 11.8169 5.01221 14.3509C5.01221 16.8849 7.05226 18.9392 9.5688 18.9392Z" fill="white"/>
<path d="M14.4175 39.5275H8.34203C6.76475 39.5275 5.47956 38.4098 5.18747 36.8216L3.37652 25.1157C3.25968 24.351 2.55867 23.8216 1.79923 23.9392C1.0398 24.0569 0.514042 24.7627 0.630878 25.5275L2.44183 37.2333C2.90917 40.1745 5.36272 42.2922 8.28362 42.2922H14.3591C15.1185 42.2922 15.7611 41.6451 15.7611 40.8804C15.7611 40.1157 15.1769 39.5275 14.4175 39.5275Z" fill="white"/>
<path d="M18.7988 33.6451H14.5927L14.067 26.2334C15.5858 27.1157 17.2215 27.6451 18.9741 27.6451H22.7712C23.7059 27.6451 24.5238 26.8804 24.5238 25.8804C24.5238 24.9393 23.7643 24.1157 22.7712 24.1157H19.0325C17.8641 24.1157 16.6374 23.7628 15.6443 23.1157L12.1976 20.8216C11.555 20.351 10.7956 20.1157 9.91931 20.1157H9.27672C8.04994 20.1157 6.94 20.6451 6.12215 21.5863C5.3043 22.5275 4.9538 23.704 5.12905 24.9393L6.88158 36.0569C7.05684 37.0569 7.93311 37.8216 8.92621 37.8216H16.4621C16.8126 37.8216 17.1047 38.0569 17.1631 38.4098L19.1493 49.4098C19.3246 50.4098 20.2009 51.1157 21.194 51.1157C21.3108 51.1157 21.4276 51.1157 21.5445 51.0569C22.6544 50.8804 23.4138 49.7628 23.2386 48.6451L20.8435 35.2922C20.6682 34.351 19.8503 33.6451 18.7988 33.6451Z" fill="white"/>
<path d="M47.1899 18.9392C49.7064 18.9392 51.7465 16.8849 51.7465 14.3509C51.7465 11.8169 49.7064 9.7627 47.1899 9.7627C44.6734 9.7627 42.6333 11.8169 42.6333 14.3509C42.6333 16.8849 44.6734 18.9392 47.1899 18.9392Z" fill="white"/>
<path d="M54.9595 23.9392C54.2001 23.8216 53.499 24.351 53.3822 25.1157L51.5713 36.8216C51.3376 38.4098 49.994 39.5275 48.4167 39.5275H42.3412C41.5818 39.5275 40.9392 40.1745 40.9392 40.9392C40.9392 41.7039 41.5818 42.351 42.3412 42.351H48.4167C51.3376 42.351 53.8496 40.2333 54.2585 37.2922L56.0694 25.5863C56.2447 24.7627 55.7189 24.0569 54.9595 23.9392Z" fill="white"/>
<path d="M47.8326 37.8216C48.8841 37.8216 49.7019 37.0569 49.8772 36.0569L51.5713 24.9393C51.7466 23.7628 51.3961 22.5275 50.5782 21.5863C49.7604 20.6451 48.6504 20.1157 47.4236 20.1157H46.781C45.9632 20.1157 45.1453 20.4098 44.5027 20.8216L41.0561 23.1157C40.063 23.7628 38.8946 24.1157 37.6679 24.1157H33.8707C32.936 24.1157 32.1182 24.8804 32.1182 25.8804C32.1182 26.8216 32.8776 27.6451 33.8707 27.6451H37.7263C39.4788 27.6451 41.1729 27.1745 42.6334 26.2334L42.1076 33.6451H37.9015C36.9084 33.6451 36.0322 34.351 35.8569 35.351L33.4618 48.704C33.2865 49.8216 33.9875 50.9393 35.1559 51.1157C35.2727 51.1157 35.3896 51.1745 35.5064 51.1745C36.4995 51.1745 37.3758 50.4687 37.551 49.4687L39.5372 38.4098C39.5956 38.0569 39.8877 37.8216 40.2382 37.8216H47.8326Z" fill="white"/>
<path d="M39.9461 30.6452C39.9461 29.8805 39.3035 29.2334 38.5441 29.2334H18.2146C17.4552 29.2334 16.8126 29.8805 16.8126 30.6452C16.8126 31.4099 17.4552 32.0569 18.2146 32.0569H27.0357V49.9981C27.0357 50.7628 27.6783 51.4099 28.4378 51.4099C29.1972 51.4099 29.8398 50.7628 29.8398 49.9981V32.0569H38.6609C39.3035 32.0569 39.9461 31.4687 39.9461 30.6452Z" fill="white"/>
<path d="M28.3794 21.3512C34.0459 21.3512 38.6025 16.7629 38.6025 11.057C38.6025 5.35116 34.0459 0.704102 28.3794 0.704102C22.7128 0.704102 18.1562 5.29234 18.1562 10.9982C18.1562 16.7041 22.7128 21.3512 28.3794 21.3512ZM28.5546 16.9394C27.8536 16.9394 27.3279 16.41 27.3279 15.7041C27.3279 14.9982 27.8536 14.4688 28.5546 14.4688C29.2556 14.4688 29.7814 14.9982 29.7814 15.7041C29.7814 16.3512 29.2556 16.9394 28.5546 16.9394ZM28.4378 5.11587C29.9567 5.11587 31.1834 5.88057 31.826 7.05704C32.4102 8.23351 32.2934 9.58646 31.5339 10.5865C31.0666 11.2335 30.5408 11.5865 30.1903 11.8217C29.7814 12.1159 29.6061 12.2335 29.5477 12.8806C29.5477 13.1747 29.2556 13.41 28.9636 13.41H28.0873C27.7368 13.41 27.5031 13.1159 27.5031 12.7629C27.6199 11.1747 28.2041 10.6453 28.9636 10.1159C29.2556 9.88057 29.5477 9.7041 29.8398 9.29234C30.1319 8.88057 30.1903 8.35116 29.9567 7.88057C29.7814 7.58646 29.3725 7.05704 28.3794 7.05704C27.0942 7.05704 26.6853 7.88057 26.5684 8.52763C26.51 8.82175 26.2763 8.99822 25.9842 8.99822H25.108C24.7575 8.99822 24.4654 8.7041 24.5238 8.35116C24.8159 6.76293 26.0427 5.11587 28.4378 5.11587Z" fill="white"/>
</svg>
