<?xml version="1.0" encoding="utf-8"?>
<!-- Generator: Adobe Illustrator 26.5.0, SVG Export Plug-In . SVG Version: 6.00 Build 0)  -->
<svg version="1.1" id="Layer_1" xmlns="http://www.w3.org/2000/svg" xmlns:xlink="http://www.w3.org/1999/xlink" x="0px" y="0px"
	 viewBox="0 0 289.1 89" style="enable-background:new 0 0 289.1 89;" xml:space="preserve">
<style type="text/css">
	.st0{fill:#F37021;}
</style>
<g>
	<path class="st0" d="M138.7,22.6v25.2c-0.1,0-3,1.9-10.1,3.3c-4.3,0.9-10,0.9-10,0.9l0-29.5h-13.3v42.8c0,0,11.3,0.7,21.2-0.9
		c6.4-1,12.2-3,12.2-3v4h13.2V22.6H138.7z"/>
	<path class="st0" d="M100.6,65l0-42.8c-14.3,0.2-34.2,3-46.5,8.7v34.1h13.4v-4.4h19.9V65H100.6z M67.5,47.5v-6.6
		c0,0,4.3-1.9,9.6-2.9c6.2-1.1,10.3-1.1,10.3-1.1v10.6H67.5z"/>
	<path class="st0" d="M203,65.2l0-34.4c0,0-9.1-3.5-16.3-5.1c-5.3-1.1-17-2.6-17-2.6V2.5c0,0-3.2,1-7.5,4.2
		c-4.4,3.3-5.7,5.9-5.7,5.9v52.7h13.2l0-28.1c0,0,4.1,0,10.3,1.1c5.4,1,9.7,2.9,9.7,2.9v24.1H203z"/>
	<path class="st0" d="M254.2,41.1V22.2c-14.3,0.2-34.2,3-46.5,8.7v15.5l0,18.8c14.3-0.3,32.5-1.2,46.5-5V41.1z M240.8,49.3
		c-11.5,2.7-19.6,2-19.6,2l0-10.4c0,0,4.3-1.9,9.6-2.9c6.2-1.1,10-1.1,10-1.1L240.8,49.3z"/>
	<path class="st0" d="M16,22.9V2.1c0,0-3.2,1-7.4,4.2c-4.4,3.3-5.7,5.9-5.7,5.9V60c2.5,0.8,12.6,3.3,22.4,4.2
		c8.6,0.8,22.3,1.3,24.1,1l0-34.6C36.5,24.5,16,22.9,16,22.9 M36,51.8c-9.3-0.2-20-2.4-20-2.4V36.8c0,0,4.1,0,10.3,1.1
		c5.4,0.9,9.7,2.9,9.7,2.9V51.8z"/>
	<path class="st0" d="M278,4.3c-12,4-19.1,12.4-19.1,12.4v70.2c0,0,3.2-1,7.5-4.2c4.4-3.3,5.8-5.9,5.8-5.9l0-41.2h9.7V22.5h-9.7
		v-0.1c1.1-0.9,5.8-4.5,13.6-6.5l0.5-0.1V2.2C286.3,2.2,280.1,3.5,278,4.3"/>
</g>
</svg>
