<svg width="29" height="31" viewBox="0 0 29 31" fill="#3C5168" xmlns="http://www.w3.org/2000/svg">
	<path fill-rule="evenodd" clip-rule="evenodd" d="M28.6 21.0001V16.0001L14.7 8.3001C14.5 8.2001 14.2 8.2001 13.9 8.3001L7.9 11.7001C7.2 12.1001 6.2 12.1001 5.5 11.7001L1.1 9.3001C0.8 9.2001 0.6 8.9001 0.4 8.7001C0.2 9.3001 0 9.8001 0 10.5001V21.0001C0 21.6001 0.1 22.1001 0.3 22.6001L5.2 19.8001C6.1 19.3001 7.2 19.3001 8.1 19.8001L13.6 23.0001C14.5 23.5001 15 24.4001 15 25.3001L15.1 31.0001C15.7 30.9001 16.2 30.7001 16.7 30.5001L26.1 25.2001C27.6 24.3001 28.6 22.7001 28.6 21.0001Z" />
	<path fill-rule="evenodd" clip-rule="evenodd" d="M12.3 24.4002L6.8 21.1002C6.5 20.9002 6.1 20.9002 5.8 21.1002L1 24.0002C1.4 24.4002 1.8 24.8002 2.2 25.1002L6.8 27.8002L11.4 30.5002C11.9 30.8002 12.4 30.9002 12.9 31.0002L12.8 25.3002C12.8 24.9002 12.7 24.6002 12.3 24.4002Z"/>
	<path fill-rule="evenodd" clip-rule="evenodd" d="M28.6 10.4003C28.6 8.70029 27.7 7.10029 26.1 6.20029L21.4 3.50029L16.7 0.900293C15.9 0.500293 15.1 0.300293 14.2 0.300293C13.3 0.300293 12.5 0.500293 11.7 0.900293L2.49998 6.20029C2.19998 6.30029 1.99998 6.50029 1.69998 6.70029C1.69998 6.90029 1.59998 7.00029 1.59998 7.10029C1.59998 7.20029 1.59998 7.50029 1.99998 7.70029L6.39998 10.1003C6.59998 10.2003 6.79998 10.2003 6.99998 10.1003L13 6.70029C13.4 6.50029 13.8 6.40029 14.3 6.40029C14.7 6.40029 15.2 6.50029 15.6 6.70029L28.6 13.9003V10.4003Z"/>
</svg>