<svg width="18" height="18" viewBox="0 0 18 18" fill="none" xmlns="http://www.w3.org/2000/svg">
<path d="M12.1542 4.41981L4.41965 12.1543C4.11453 12.4594 4.11453 12.9541 4.41965 13.2593C4.72477 13.5644 5.21947 13.5644 5.52458 13.2593L13.2591 5.52474C13.5642 5.21962 13.5642 4.72492 13.2591 4.4198C12.954 4.11469 12.4593 4.11469 12.1542 4.41981Z" fill="#ffffff"/>
<path d="M13.2587 12.1543L5.52415 4.41978C5.21903 4.11466 4.72433 4.11466 4.41921 4.41978C4.1141 4.72489 4.1141 5.21959 4.41921 5.52471L12.1537 13.2592C12.4588 13.5643 12.9535 13.5643 13.2587 13.2592C13.5638 12.9541 13.5638 12.4594 13.2587 12.1543Z" fill="#ffffff"/>
</svg>
