<?xml version="1.0" encoding="UTF-8"?>
<svg width="51px" height="78px" viewBox="0 0 51 78" version="1.1" xmlns="http://www.w3.org/2000/svg" xmlns:xlink="http://www.w3.org/1999/xlink">
    <!-- Generator: Sketch 57.1 (83088) - https://sketch.com -->
    <title>Rating 3 Copy 3</title>
    <desc>Created with Sketch.</desc>
    <g id="8.-Mobile" stroke="none" stroke-width="1" fill="none" fill-rule="evenodd">
        <g id="8.3.1-Mobile---Firmade-andmebaas" transform="translate(-304.000000, -1219.000000)">
            <g id="Rating-3-Copy-3" transform="translate(304.000000, 1219.000000)">
                <g id="Rating-2">
                    <g id="Rating">
                        <path d="M-11.5,13.5 L61.8249187,13.5 C62.9294882,13.5 63.8249187,14.3954305 63.8249187,15.5 C63.8249187,15.6915399 63.7974038,15.8820866 63.743217,16.0658019 L56.9787776,39 L56.9787776,39 L63.743217,61.9341981 C64.0557007,62.993645 63.4501675,64.1058145 62.3907206,64.4182983 C62.2070053,64.4724851 62.0164586,64.5 61.8249187,64.5 L-11.5,64.5 C-12.6045695,64.5 -13.5,63.6045695 -13.5,62.5 L-13.5,15.5 C-13.5,14.3954305 -12.6045695,13.5 -11.5,13.5 Z" id="Rating-Background" fill="#C1AA63" transform="translate(25.500000, 39.000000) rotate(90.000000) translate(-25.500000, -39.000000) "></path>
                        <g id="hange_logo_icons_3" transform="translate(6.000000, 6.000000)" fill="#FCFBFA" fill-rule="nonzero">
                            <g id="Group" transform="translate(3.000000, 52.000000)">
                                <polygon id="Path" points="4.32909722 4.84045455 4.32909722 1.45090909 2.95304167 4.84045455 2.499 4.84045455 1.12270833 1.45090909 1.12270833 4.84045455 0.0833472222 4.84045455 0.0833472222 0.140227273 1.54015278 0.140227273 2.72590278 3.07886364 3.91188889 0.140227273 5.37601389 0.140227273 5.37601389 4.84045455"></polygon>
                                <polygon id="Path" points="7.07318056 4.84045455 7.07318056 0.140227273 10.5286667 0.140227273 10.5286667 1.02090909 8.11277778 1.02090909 8.11277778 2.00772727 10.4774306 2.00772727 10.4774306 2.88840909 8.11277778 2.88840909 8.11277778 3.95954545 10.5284306 3.95954545 10.5284306 4.84045455"></polygon>
                                <polygon id="Path" points="12.0723611 4.84045455 12.0723611 0.140227273 13.1117222 0.140227273 13.1117222 4.84045455"></polygon>
                                <path d="M14.4729028,4.17795455 L15.0440556,3.39590909 C15.3880694,3.74136364 15.922625,4.03727273 16.5957778,4.03727273 C17.17425,4.03727273 17.4453056,3.79045455 17.4453056,3.51568182 C17.4453056,2.69818182 14.6341667,3.26909091 14.6341667,1.50045455 C14.6341667,0.718181818 15.3370694,0.0697727273 16.4862222,0.0697727273 C17.2623194,0.0697727273 17.9066667,0.295227273 18.38975,0.725227273 L17.8115139,1.47204545 C17.4160278,1.11977273 16.8890278,0.957727273 16.3913056,0.957727273 C15.9519028,0.957727273 15.7030417,1.14090909 15.7030417,1.42272727 C15.7030417,2.16272727 18.5068611,1.6625 18.5068611,3.41704545 C18.5068611,4.27659091 17.8625139,4.925 16.5523333,4.925 C15.6076528,4.925 14.9340278,4.62204545 14.4729028,4.17795455 Z" id="Path"></path>
                                <polygon id="Path" points="20.9654861 4.84045455 20.9654861 1.02090909 19.5379583 1.02090909 19.5379583 0.140227273 23.4326111 0.140227273 23.4326111 1.02090909 22.0121667 1.02090909 22.0121667 4.84045455"></polygon>
                                <polygon id="Path" points="24.8299167 4.84045455 24.8299167 0.140227273 28.2854028 0.140227273 28.2854028 1.02090909 25.86975 1.02090909 25.86975 2.00772727 28.2344028 2.00772727 28.2344028 2.88840909 25.86975 2.88840909 25.86975 3.95954545 28.2854028 3.95954545 28.2854028 4.84045455"></polygon>
                                <path d="M32.589,4.84045455 L31.6299167,3.17022727 L30.8684583,3.17022727 L30.8684583,4.84045455 L29.8290972,4.84045455 L29.8290972,0.140227273 L32.1132361,0.140227273 C33.130875,0.140227273 33.7603472,0.781363636 33.7603472,1.65522727 C33.7603472,2.47977273 33.2113889,2.93068182 32.6841528,3.05045455 L33.789625,4.84045455 L32.589,4.84045455 Z M32.6914722,1.64818182 C32.6914722,1.26068182 32.3765,1.02090909 31.9666111,1.02090909 L30.8686944,1.02090909 L30.8686944,2.28954545 L31.9666111,2.28954545 C32.3767361,2.28954545 32.6914722,2.05 32.6914722,1.64818182 Z" id="Shape"></path>
                            </g>
                            <g id="Group">
                                <path d="M4.5768773,26.6053476 L4.95874233,26.6830749 L5.11211043,26.3228342 C5.16020245,26.2099733 6.27588957,23.5325936 5.18221472,21.4370856 C4.08853988,19.3418182 1.26379141,18.7447861 1.14415951,18.7204813 L0.762294479,18.642754 L0.60892638,19.0029947 C0.560834356,19.1158556 -0.554852761,21.7932353 0.538822086,23.8887433 C1.63225767,25.9840107 4.4572454,26.5808021 4.5768773,26.6053476 Z M1.35088344,19.7691979 C2.09092638,19.9932353 3.66623926,20.6035027 4.3349816,21.8844385 C5.00037423,23.1598396 4.60654601,24.8137701 4.37039264,25.5554278 C3.62915337,25.3297059 2.05192638,24.7165508 1.38605521,23.4411497 C0.720184049,22.1652674 1.11473006,20.509893 1.35088344,19.7691979 Z M33.1918712,19.7947059 L33.5440675,19.6274599 C33.6543681,19.5747594 36.2554049,18.3157219 36.8188712,16.0183155 C37.3825767,13.7204278 35.6622699,11.3895722 35.588816,11.2911497 L35.3543374,10.9783155 L35.0021411,11.1455615 C34.8918405,11.1980214 32.2910429,12.4568182 31.7273374,14.7547059 C31.1636319,17.0523529 32.8839387,19.3834492 32.9573926,19.4818717 L33.1918712,19.7947059 Z M32.6561595,14.9854813 C32.9995031,13.5863904 34.3862761,12.6110695 35.0516687,12.2140107 C35.4576994,12.8750535 36.2338712,14.3826738 35.8895706,15.7875401 C35.5464663,17.1859091 34.1606503,18.1607487 33.4947791,18.5582888 C33.089227,17.8950802 32.3132945,16.3838503 32.6561595,14.9854813 Z M5.36429448,19.6272193 L5.7164908,19.7944652 L5.95096933,19.481631 C6.02442331,19.3834492 7.74473006,17.0521123 7.18102454,14.7544652 C6.61755828,12.4565775 4.01652147,11.1977807 3.90622086,11.1453209 L3.55402454,10.9780749 L3.31954601,11.2909091 C3.24609202,11.3890909 1.52578528,13.7201872 2.0894908,16.0178342 C2.65295706,18.3154813 5.25399387,19.5747594 5.36429448,19.6272193 Z M3.85765031,12.2140107 C4.52280368,12.609385 5.90718405,13.5808556 6.25196319,14.9857219 C6.59506748,16.3843316 5.81841718,17.8965241 5.41286503,18.5592513 C4.74747239,18.1636364 3.36333129,17.1921658 3.01855215,15.7875401 C2.67544785,14.3884492 3.45233742,12.8764973 3.85765031,12.2140107 Z M38.2991963,19.0029947 L38.1458282,18.642754 L37.7639632,18.7204813 C37.6443313,18.7450267 34.8195828,19.3418182 33.725908,21.4370856 C32.6322331,23.5325936 33.7479202,26.2099733 33.7960123,26.3228342 L33.9493804,26.6830749 L34.3312454,26.6053476 C34.4508773,26.5808021 37.275865,25.9840107 38.3693006,23.8887433 C39.4632147,21.7929947 38.3472883,19.1158556 38.2991963,19.0029947 Z M37.5220675,23.4411497 C36.8564356,24.7165508 35.2789693,25.3299465 34.5377301,25.5554278 C34.301816,24.8137701 33.9077485,23.1598396 34.5731411,21.8844385 C35.2390123,20.6090374 36.8167178,19.9956417 37.5574785,19.7701604 C37.7936319,20.5115775 38.1874601,22.1657487 37.5220675,23.4411497 Z M7.15135583,34.1472995 L7.54015951,34.1205882 L7.5937546,33.7333957 C7.6102638,33.6118717 7.9863865,30.7330749 6.38307975,29.0011765 C5.07957055,27.5931818 2.93648466,27.4413369 2.07537423,27.4413369 C1.88611656,27.4413369 1.77629448,27.4490374 1.77629448,27.4490374 L1.3874908,27.4757487 L1.33389571,27.8627005 C1.3173865,27.9844652 0.941263804,30.8630214 2.54457055,32.5951604 C3.84784049,34.0031551 5.99116564,34.1550054 6.85227607,34.1550054 C7.04153374,34.1552406 7.15135583,34.1472995 7.15135583,34.1472995 Z M6.67713497,33.1900267 C5.95168712,33.1693316 4.22994479,33.0032888 3.24489571,31.9394118 C2.26893865,30.8846791 2.21630061,29.1838235 2.25027607,28.4063102 C2.97548466,28.4267647 4.69746626,28.5928075 5.68251534,29.6571658 C6.65847239,30.7114171 6.71111043,32.4125134 6.67713497,33.1900267 Z M37.5194356,27.4757487 L37.1318282,27.4490374 C37.1318282,27.4490374 37.0220061,27.4413369 36.8327485,27.4413369 C35.971638,27.4413369 33.8285521,27.5934225 32.5250429,29.0011765 C30.9219755,30.7330749 31.2978589,33.6118717 31.3143681,33.7333957 L31.3691595,34.1205882 L31.7567669,34.1472995 C31.7567669,34.1472995 31.866589,34.155 32.0558466,34.155 C32.9169571,34.155 35.0602822,34.0029144 36.3635521,32.5949198 C37.9666196,30.8630214 37.5907362,27.9844652 37.574227,27.8627005 L37.5194356,27.4757487 Z M35.663227,31.9391711 C34.6781779,33.0035294 32.9566748,33.1695722 32.2309877,33.1900267 C32.1970123,32.4125134 32.2496503,30.7114171 33.2256074,29.6571658 C34.211135,28.5925668 35.9338344,28.4267647 36.6588037,28.4063102 C36.6937362,29.1826203 36.6434908,30.8798663 35.663227,31.9391711 Z M10.7173436,35.5261765 C10.0430982,35.1178075 9.21931288,34.910615 8.26895706,34.910615 C6.98147853,34.910615 5.9088589,35.2934759 5.8638773,35.3095989 L5.49732515,35.4421925 L5.55211656,35.830107 C5.56934356,35.951631 5.99571166,38.8229679 8.01126994,40.043984 C8.68551534,40.4523529 9.50953988,40.6597861 10.4598957,40.6597861 L10.460135,40.6597861 C11.7473742,40.6597861 12.8197546,40.2769251 12.8647362,40.2608021 L13.2312883,40.1282086 L13.1764969,39.7402941 C13.1592699,39.6187701 12.7329018,36.7471925 10.7173436,35.5261765 Z M10.4598957,39.6972193 C9.6858773,39.6972193 9.0281411,39.5364706 8.50511043,39.2197861 C7.27816564,38.4762032 6.76207362,36.8559626 6.58190798,36.0991444 C6.96520859,36 7.58777301,35.8734225 8.26895706,35.8734225 C9.04297546,35.8734225 9.70047239,36.0339305 10.2235031,36.350615 C11.4506871,37.0944385 11.9667791,38.7154011 12.1469448,39.4719786 C11.765319,39.5708824 11.1446687,39.6972193 10.4598957,39.6972193 Z M30.6394049,34.910615 C29.6888098,34.910615 28.8652638,35.1175668 28.1910184,35.5261765 C26.1754601,36.7471925 25.749092,39.6187701 25.731865,39.7402941 L25.6770736,40.1282086 L26.0436258,40.2608021 C26.0886074,40.2769251 27.1609877,40.6597861 28.4484663,40.6597861 C29.3990613,40.6597861 30.2228466,40.4525936 30.897092,40.043984 C32.9126503,38.8229679 33.3390184,35.951631 33.3562454,35.830107 L33.4110368,35.4421925 L33.0444847,35.3095989 C32.9995031,35.2934759 31.9268834,34.910615 30.6394049,34.910615 Z M30.4030123,39.2195455 C29.8799816,39.5362299 29.2222454,39.6969786 28.448227,39.6969786 C27.7665644,39.6969786 27.1435215,39.5701604 26.7604601,39.471016 C26.9389509,38.7149198 27.452411,37.0973262 28.6846196,36.3503743 C29.2076503,36.0336898 29.8651472,35.8731818 30.6391656,35.8731818 C31.3203497,35.8731818 31.9429141,35.9997594 32.3262147,36.0989037 C32.1460491,36.8559626 31.6299571,38.4762032 30.4030123,39.2195455 Z" id="Shape"></path>
                                <path d="M22.9872699,21.6315241 L20.3546503,20.1024866 C19.8354479,19.8012032 18.9743374,19.8009626 18.4553742,20.1024866 L15.8225153,21.6315241 C15.2899141,21.940508 14.8728773,22.6674866 14.8728773,23.2859358 L14.8728773,26.3432888 C14.8728773,26.961738 15.2899141,27.6887166 15.8225153,27.9977005 L18.4553742,29.5262567 C18.7149755,29.6768984 19.0520982,29.7601604 19.4050123,29.7601604 C19.7581656,29.7601604 20.0952883,29.6768984 20.3548896,29.5262567 L22.9875092,27.9977005 C23.5203497,27.6882353 23.9373865,26.9614973 23.9373865,26.3432888 L23.9373865,23.2859358 C23.9371472,22.6674866 23.5201104,21.9407487 22.9872699,21.6315241 Z M18.9863006,28.8474064 C18.9453865,28.8329679 18.9075828,28.816123 18.8740859,28.796631 L16.241227,27.2680749 C16.2117975,27.2509893 16.1830859,27.2293316 16.1543742,27.2064706 L17.3071472,26.5360428 C17.3150429,26.5336364 17.3329877,26.5336364 17.3246135,26.5283422 L18.9709877,27.4824866 C18.9767301,27.488262 18.9855828,27.5031818 18.9860613,27.4937968 L18.9860613,28.8474064 L18.9863006,28.8474064 Z M23.0997239,26.3432888 C23.0997239,26.6659893 22.8465828,27.1068449 22.5685583,27.2683155 L19.9359387,28.7968717 C19.9024417,28.8163636 19.8643988,28.8332086 19.8234847,28.8478877 L19.8234847,27.4940374 C19.8234847,27.2064706 19.6504969,26.9059091 19.4040552,26.7636898 L17.7438037,25.7994385 C17.4968834,25.6555348 17.1516258,25.6557754 16.9047055,25.7991979 L15.725135,26.4840642 C15.7160429,26.4356952 15.7103006,26.3885294 15.7103006,26.3435294 L15.7103006,23.2861765 C15.7103006,23.2443048 15.7150859,23.200508 15.7229816,23.155508 L16.9264785,23.8543316 C17.1695706,23.9963102 17.5222454,23.9960695 17.765816,23.8540909 L19.383,22.9095722 C19.3908957,22.9071658 19.408362,22.9071658 19.3995092,22.901631 L23.0997239,25.0500802 L23.0997239,26.3432888 L23.0997239,26.3432888 Z M23.0997239,24.0771658 L19.8186994,22.172246 C19.5748896,22.0302674 19.2219755,22.0309893 18.9796012,22.1729679 L17.3624172,23.1174866 C17.3545215,23.1196524 17.3372945,23.1196524 17.345908,23.1251872 L16.146,22.4282888 C16.1773436,22.4027807 16.2089264,22.3796791 16.2409877,22.3609091 L18.8738466,20.8318717 C19.0061595,20.755107 19.1994847,20.7110695 19.404773,20.7110695 C19.6100613,20.7110695 19.8036258,20.755107 19.9359387,20.8318717 L22.5685583,22.3609091 C22.8465828,22.5223797 23.0997239,22.9632353 23.0997239,23.2859358 L23.0997239,24.0771658 Z" id="Shape"></path>
                                <path d="M25.8057975,14.2055615 L25.7574663,13.0531283 C25.6459693,11.115 23.4868528,10.7208289 22.3269018,10.5088235 C22.0864417,10.4647861 21.8787607,10.4270053 21.7368773,10.3870588 C21.4834969,10.3155882 21.4148282,9.55612299 21.5124479,8.8909893 C22.2106196,8.11371658 22.6343558,6.92663102 22.6391411,5.52393048 L23.2767791,5.52393048 L23.2767791,5.04264706 C23.2767791,4.08609626 23.2736687,1.45179144 20.8094908,0.731069519 L20.8343742,0.181203209 L17.9627301,0.181203209 L17.9876135,0.731791444 C15.5236748,1.45275401 15.5203252,4.08609626 15.5203252,5.04264706 L15.5203252,5.52393048 L16.1584417,5.52393048 C16.163227,6.92614973 16.5867239,8.11323529 17.2844172,8.89026738 C17.3727055,9.49572193 17.3349018,10.3095722 17.0599877,10.3870588 C16.9183436,10.4270053 16.7106626,10.4647861 16.4699632,10.5088235 C15.3100123,10.7208289 13.1508957,11.1152406 13.0393988,13.0531283 L13.0389202,14.184385 C9.5358589,16.3453476 7.19418405,20.2312299 7.19418405,24.6573529 C7.19418405,29.7974599 10.353184,34.2074599 14.8209571,36.0346524 L14.8209571,44.8433422 L19.3361043,41.8887433 L23.8505337,44.8433422 L23.8505337,36.0907219 C28.3910429,34.299385 31.6156012,29.8513636 31.6156012,24.6571123 C31.6156012,20.2451872 29.289,16.370615 25.8057975,14.2055615 Z M18.0330736,1.72347594 L18.1048528,3.29606952 L19.0609509,3.25179144 L18.9647669,1.14352941 L19.8325767,1.14352941 L19.7363926,3.25179144 L20.6924908,3.29606952 L20.7642699,1.72106952 C21.7550613,2.09887701 22.2314356,2.99719251 22.3084785,4.56136364 L16.4891043,4.56136364 C16.565908,2.99791444 17.0432393,2.10128342 18.0330736,1.72347594 Z M17.1154969,5.52393048 L21.6820859,5.52393048 C21.6744294,7.48516043 20.7168957,8.90663102 19.3985521,8.90663102 C18.0806871,8.90663102 17.1231534,7.48516043 17.1154969,5.52393048 Z M13.9957362,13.0957219 C14.0675153,12.0147594 15.2877607,11.7031283 16.6410368,11.4559893 C16.905184,11.407861 17.133681,11.3662299 17.3181534,11.3140107 C18.0625031,11.1046524 18.2575031,10.3105348 18.2804724,9.62639037 C18.6250123,9.78160428 18.9992209,9.86919786 19.3985521,9.86919786 C19.7981227,9.86919786 20.172092,9.78160428 20.5168712,9.62639037 C20.540319,10.3105348 20.7348405,11.1046524 21.4789509,11.3140107 C21.6634233,11.3662299 21.8919202,11.407861 22.1560675,11.4559893 C23.5146074,11.7040909 24.7391595,12.0171658 24.8016074,13.1014973 L24.8250552,13.657861 C23.191362,12.8406417 21.3523804,12.378369 19.4074049,12.378369 C17.4648221,12.378369 15.6279939,12.8389572 13.9957362,13.6537701 L13.9957362,13.0957219 L13.9957362,13.0957219 Z M18.8468098,41.0609358 L15.7782515,43.0688503 L15.7782515,36.3831016 C16.7544479,36.6889572 17.7832822,36.8735294 18.8468098,36.922139 L18.8468098,41.0609358 Z M22.8937178,43.0688503 L19.803865,41.046738 L19.803865,36.9264706 C20.874092,36.8918182 21.9096258,36.7192781 22.8937178,36.4237701 L22.8937178,43.0688503 Z M19.4074049,35.9737701 C13.2009018,35.9737701 8.15123926,30.8971925 8.15123926,24.6573529 C8.15123926,18.4175134 13.2006626,13.3409358 19.4074049,13.3409358 C25.6115153,13.3409358 30.658546,18.4175134 30.658546,24.6573529 C30.658546,30.8971925 25.6115153,35.9737701 19.4074049,35.9737701 Z" id="Shape"></path>
                                <path d="M13.2047301,2.95508021 L13.2267423,2.47090909 L10.6374294,2.47090909 L10.6594417,2.95387701 C8.56899387,3.59759358 8.56755828,5.84975936 8.56755828,6.67106952 L8.56755828,7.15235294 L9.11116564,7.15235294 C9.12934969,8.31970588 9.48585276,9.30898396 10.0686994,9.96834225 C10.1459816,10.5186898 10.0820982,11.0943048 9.92705521,11.137861 C9.81029448,11.1708289 9.63539264,11.2028342 9.43321472,11.2396524 C8.72451534,11.3691176 7.75382209,11.5464706 7.10541718,12.1261765 L7.74138037,12.8456952 C8.18880368,12.445508 9.00684663,12.2960695 9.60404908,12.1870588 C9.82991411,12.1456684 10.0251534,12.1100535 10.1852209,12.0648128 C10.8180736,11.886738 11.0097239,11.2497594 11.0480061,10.6727005 C11.3229202,10.7819519 11.6191288,10.8409091 11.9318466,10.8409091 C13.5442454,10.8409091 14.7185521,9.29454545 14.7522883,7.15235294 L15.2963868,7.15235294 L15.2963868,6.67106952 C15.2968528,5.85024064 15.2942209,3.59927807 13.2047301,2.95508021 Z M11.9320859,9.87858289 C10.8709509,9.87858289 10.0971718,8.73721925 10.0677423,7.15259358 L13.7957117,7.15259358 C13.7662822,8.73721925 12.9929816,9.87858289 11.9320859,9.87858289 Z M9.53825153,6.19002674 C9.61122699,4.99909091 9.97466871,4.29016043 10.7053804,3.9628877 L10.7613681,5.19160428 L11.7174663,5.1473262 L11.639227,3.43347594 L12.2247055,3.43347594 L12.1464663,5.1473262 L13.1025644,5.19160428 L13.1585521,3.9628877 C13.8892638,4.29016043 14.2529448,4.99909091 14.325681,6.19002674 L9.53825153,6.19002674 L9.53825153,6.19002674 Z" id="Shape"></path>
                                <path d="M29.474908,11.239893 C29.2724908,11.2030749 29.0978282,11.1710695 28.9808282,11.1381016 C28.8262638,11.0943048 28.7621411,10.5189305 28.8394233,9.96858289 C29.4222699,9.3092246 29.7790123,8.31970588 29.7971963,7.15259358 L30.3405644,7.15259358 L30.3405644,6.67131016 C30.3405644,5.85 30.3381718,3.59879679 28.2484417,2.95532086 L28.2706933,2.47114973 L25.6813804,2.47114973 L25.7036319,2.95580214 C23.6146196,3.6 23.6115092,5.85024064 23.6115092,6.67131016 L23.6115092,7.15259358 L24.1558344,7.15259358 C24.189092,9.2947861 25.3633988,10.8411497 26.9760368,10.8411497 C27.2889939,10.8411497 27.5849632,10.7821925 27.859638,10.6729412 C27.8979202,11.25 28.0900491,11.8869786 28.7224233,12.0650535 C28.8827301,12.1102941 29.0777301,12.1459091 29.3038344,12.1872995 C29.9010368,12.2963102 30.7190798,12.4457487 31.1665031,12.8459358 L31.8024663,12.1264171 C31.1543006,11.5467112 30.1836074,11.3693583 29.474908,11.239893 Z M25.7493313,3.96336898 L25.805319,5.19160428 L26.7614172,5.1473262 L26.6831779,3.43347594 L27.2686564,3.43347594 L27.1904172,5.1473262 L28.1465153,5.19160428 L28.2025031,3.96168449 C28.933454,4.28895722 29.2968957,4.99860963 29.3696319,6.19002674 L24.5819632,6.19002674 C24.6551779,4.99909091 25.0188589,4.29064171 25.7493313,3.96336898 Z M26.9760368,9.87858289 C25.9151411,9.87858289 25.1418405,8.73721925 25.112411,7.15259358 L28.8403804,7.15259358 C28.8109509,8.73721925 28.0371718,9.87858289 26.9760368,9.87858289 Z" id="Shape"></path>
                            </g>
                        </g>
                    </g>
                </g>
            </g>
        </g>
    </g>
</svg>